<svg id="hdmi-scan__background" style="background-color:#fff" xmlns="http://www.w3.org/2000/svg"
    xmlns:xlink="http://www.w3.org/1999/xlink" width="2560" zoomAndPan="magnify" viewBox="0 0 1920 1079.999946"
    height="1440" preserveAspectRatio="xMidYMid meet" version="1.2">
    <g id="ea94fda8ca">
        <path id="hdmi-scan__background-icons"
            d="M 36.144531 46.386719 C 35.480469 46.804688 35.238281 48.324219 35.394531 51.0625 L 35.625 55.113281 L 103.875 55.113281 L 104.105469 51.0625 C 104.261719 48.324219 104.015625 46.804688 103.355469 46.386719 C 102.074219 45.574219 37.425781 45.574219 36.144531 46.386719 M 1599.511719 54.429688 C 1582.796875 57.757812 1570.921875 72.242188 1570.976562 89.238281 C 1571.074219 120.203125 1607.585938 136.035156 1630 114.839844 C 1643.792969 101.792969 1644.84375 80.03125 1632.355469 65.921875 C 1629.183594 62.339844 1624.707031 58.941406 1620.742188 57.109375 C 1617.679688 55.691406 1607.199219 53.117188 1605.367188 53.328125 C 1604.953125 53.375 1602.320312 53.871094 1599.511719 54.429688 M 1600.867188 58.265625 C 1590.621094 60.667969 1582.445312 66.859375 1578.082031 75.523438 C 1575.875 79.90625 1576.070312 81.285156 1579.289062 83.933594 C 1582.652344 86.710938 1584.476562 87.042969 1583.195312 84.648438 C 1582.292969 82.964844 1582.972656 83.105469 1585.492188 85.117188 C 1586.109375 85.609375 1588.640625 86.8125 1591.117188 87.785156 C 1593.59375 88.761719 1595.746094 89.644531 1595.90625 89.75 C 1596.0625 89.851562 1595.167969 91.105469 1593.914062 92.535156 C 1592.660156 93.960938 1591.394531 96.230469 1591.097656 97.578125 C 1590.507812 100.261719 1590.523438 100.277344 1596.964844 104.757812 C 1600.992188 107.554688 1602.65625 110.402344 1603.261719 115.53125 C 1603.503906 117.570312 1604.003906 119.238281 1604.375 119.238281 C 1605.746094 119.238281 1610.707031 116.292969 1613.738281 113.679688 C 1617.949219 110.046875 1619.992188 105.636719 1619.992188 100.175781 C 1619.992188 96.277344 1619.746094 95.597656 1617.554688 93.433594 C 1615.199219 91.109375 1612.246094 89.957031 1603.117188 87.800781 C 1594.820312 85.84375 1590.089844 82.1875 1591.027344 78.453125 C 1591.734375 75.632812 1593.558594 75.496094 1597.558594 77.960938 C 1601.011719 80.082031 1604.992188 81.59375 1604.992188 80.777344 C 1604.992188 80.570312 1604.324219 78.933594 1603.507812 77.132812 C 1601.605469 72.9375 1601.597656 67.792969 1603.492188 62.8125 C 1604.316406 60.640625 1604.992188 58.613281 1604.992188 58.300781 C 1604.992188 57.703125 1603.328125 57.6875 1600.867188 58.265625 M 930.160156 66.445312 C 926.015625 69.710938 924.546875 73.542969 924.902344 80.167969 C 925.5 91.40625 930.757812 99.238281 937.699219 99.238281 C 943.234375 99.238281 947.425781 94.992188 949.808594 86.960938 C 951.597656 80.945312 951.34375 75.984375 949.015625 71.3125 C 946.386719 66.035156 943.777344 64.492188 937.496094 64.5 C 933.394531 64.503906 932.230469 64.8125 930.160156 66.445312 M 35.25 70.402344 C 35.25 73.746094 35.539062 74.941406 36.4375 75.285156 C 38.257812 75.984375 102.242188 75.800781 103.355469 75.09375 C 104.015625 74.675781 104.261719 73.15625 104.105469 70.417969 L 103.875 66.363281 L 69.5625 66.167969 L 35.25 65.976562 Z M 1628.871094 74.800781 C 1624.035156 80.054688 1623.28125 83.613281 1626.179688 87.574219 C 1629.171875 91.664062 1634.386719 97.859375 1635.046875 98.105469 C 1636.136719 98.515625 1636.863281 94.386719 1636.808594 88.113281 C 1636.765625 83.222656 1636.363281 81.246094 1634.644531 77.425781 C 1633.484375 74.847656 1632.140625 72.738281 1631.65625 72.738281 C 1631.171875 72.738281 1629.917969 73.667969 1628.871094 74.800781 M 35.25 90.746094 L 35.25 95.253906 L 103.875 94.863281 L 104.097656 90.550781 L 104.324219 86.238281 L 35.25 86.238281 Z M 357 86.722656 C 350.300781 87.996094 342.855469 94.800781 340.882812 101.449219 C 339.433594 106.328125 339.449219 109.96875 340.933594 114.082031 L 342.121094 117.363281 L 325.183594 133.894531 C 315.871094 142.988281 308.25 150.6875 308.25 151.003906 C 308.25 151.324219 308.964844 153.25 309.839844 155.289062 L 311.433594 158.988281 L 324.0625 158.988281 L 326.164062 154.300781 C 327.316406 151.722656 328.679688 148.347656 329.191406 146.796875 C 330.335938 143.316406 331.328125 142.785156 337.609375 142.304688 C 340.347656 142.097656 342.941406 141.707031 343.371094 141.441406 C 343.800781 141.175781 345.902344 137.902344 348.042969 134.160156 C 351.472656 128.164062 352.121094 127.429688 353.527344 127.917969 C 354.40625 128.222656 357.621094 128.617188 360.679688 128.792969 C 365.59375 129.078125 366.695312 128.882812 370.242188 127.085938 C 374.691406 124.835938 377.925781 121.546875 380.34375 116.804688 C 382.75 112.082031 382.601562 103.625 380.019531 98.527344 C 375.792969 90.191406 365.773438 85.050781 357 86.722656 M 1822.492188 88.257812 C 1818.984375 88.84375 1814.261719 89.757812 1811.992188 90.292969 L 1807.867188 91.261719 L 1807.664062 96.0625 L 1807.464844 100.863281 L 1819.851562 118.4375 L 1832.242188 136.011719 L 1832.242188 160.4375 L 1834.488281 163 C 1837.691406 166.644531 1848.972656 171.863281 1850.976562 170.625 C 1851.460938 170.324219 1851.742188 163.835938 1851.742188 152.976562 L 1851.742188 135.804688 L 1859.804688 124.453125 C 1878.199219 98.546875 1876.492188 101.390625 1876.492188 96.667969 C 1876.492188 91.773438 1876.054688 91.261719 1870.867188 90.078125 C 1856.757812 86.855469 1835.664062 86.0625 1822.492188 88.257812 M 1174.996094 90.488281 C 1174.71875 90.765625 1174.496094 105.101562 1174.496094 122.351562 L 1174.496094 153.710938 L 1176.183594 154.121094 C 1177.109375 154.347656 1187.996094 154.441406 1200.371094 154.324219 L 1222.871094 154.113281 L 1223.261719 89.988281 L 1199.378906 89.988281 C 1186.242188 89.988281 1175.269531 90.214844 1174.996094 90.488281 M 360.804688 99.464844 C 358.304688 102.640625 359.238281 107.058594 362.742188 108.65625 C 365.402344 109.867188 367.042969 109.6875 369.273438 107.933594 C 371.875 105.886719 372.046875 101.292969 369.605469 99.019531 C 367.148438 96.726562 362.78125 96.949219 360.804688 99.464844 M 915.371094 106.191406 C 910.320312 108.761719 907.089844 112.019531 904.652344 116.980469 C 902.871094 120.605469 902.589844 122.1875 902.359375 129.785156 L 902.097656 138.453125 L 907.234375 139.792969 C 928.019531 145.207031 946.203125 145.214844 968.132812 139.816406 L 973.644531 138.457031 L 973.34375 129.785156 C 973.097656 122.6875 972.730469 120.472656 971.324219 117.582031 C 967.925781 110.585938 959.535156 104.238281 953.6875 104.238281 C 951.792969 104.238281 949.53125 105.328125 945.125 108.363281 C 941.832031 110.632812 938.613281 112.488281 937.96875 112.488281 C 937.324219 112.488281 933.921875 110.632812 930.402344 108.363281 C 923.027344 103.605469 921.011719 103.3125 915.371094 106.191406 M 1159.851562 105.890625 C 1159.644531 106.425781 1159.566406 120.703125 1159.671875 137.613281 L 1159.871094 168.363281 L 1184.433594 168.5625 L 1208.992188 168.757812 L 1208.992188 159.738281 L 1169.261719 159.738281 L 1168.871094 105.363281 L 1164.546875 105.140625 C 1161.523438 104.980469 1160.113281 105.207031 1159.851562 105.890625 M 682.566406 108.71875 C 673.71875 110.109375 662.9375 117.5625 657.589844 125.988281 C 652.933594 133.324219 651.53125 138.125 651.449219 146.988281 C 651.382812 153.871094 651.640625 155.574219 653.46875 160.488281 C 654.617188 163.582031 656.488281 167.464844 657.625 169.113281 L 659.695312 172.113281 L 690.488281 172.308594 L 721.285156 172.503906 L 723.121094 169.683594 C 733.566406 153.617188 731.527344 132.824219 718.214844 119.601562 C 710.644531 112.082031 703.675781 108.992188 692.996094 108.421875 C 689.492188 108.234375 684.796875 108.367188 682.566406 108.71875 M 686.613281 114 C 684.675781 116.136719 684.847656 119.898438 686.953125 121.605469 C 691.980469 125.675781 698.546875 119.460938 694.828125 114.15625 C 693.269531 111.929688 688.566406 111.839844 686.613281 114 M 667.296875 123.734375 C 661.921875 127.964844 668.453125 135.511719 674.078125 131.570312 C 675.96875 130.246094 676.359375 126.347656 674.808594 124.269531 C 673.230469 122.148438 669.640625 121.894531 667.296875 123.734375 M 706.921875 123.996094 C 704.53125 126.386719 704.464844 128.976562 706.730469 131.109375 C 710.328125 134.484375 715.496094 132.378906 715.496094 127.539062 C 715.496094 124.320312 714.535156 123.210938 711.164062 122.535156 C 709.308594 122.164062 708.460938 122.457031 706.921875 123.996094 M 690.714844 139.921875 C 679.792969 154.769531 680.125 154.167969 680.484375 158.46875 C 680.722656 161.3125 681.316406 162.621094 683.289062 164.65625 C 685.578125 167.019531 686.164062 167.238281 690.171875 167.238281 C 695.386719 167.238281 697.730469 165.941406 699.789062 161.90625 C 701.09375 159.351562 701.246094 157.417969 701.246094 143.644531 C 701.246094 131.566406 701.039062 128.238281 700.277344 128.238281 C 699.746094 128.238281 695.445312 133.496094 690.714844 139.921875 M 657.164062 143.65625 C 655.0625 145.128906 654.898438 149.214844 656.867188 151 C 658.921875 152.855469 663.398438 152.617188 664.828125 150.570312 C 668.402344 145.46875 662.359375 140.019531 657.164062 143.65625 M 716.515625 144.402344 C 715.019531 145.898438 714.714844 146.757812 715.109375 148.335938 C 715.898438 151.476562 716.925781 152.238281 720.371094 152.238281 C 723.785156 152.238281 724.847656 151.472656 725.605469 148.453125 C 725.941406 147.113281 725.605469 145.945312 724.484375 144.519531 C 722.382812 141.851562 719.117188 141.800781 716.515625 144.402344 M 688.871094 153.136719 C 686.847656 154.285156 686.273438 155.257812 686.257812 157.5625 C 686.242188 159.96875 688.363281 161.988281 690.902344 161.988281 C 693.101562 161.988281 694.164062 160.945312 694.882812 158.085938 C 695.28125 156.507812 694.972656 155.648438 693.476562 154.152344 C 691.332031 152.007812 690.992188 151.933594 688.871094 153.136719 M 1400.839844 178.601562 L 1400.617188 183.210938 L 1396.265625 185.089844 L 1391.914062 186.964844 L 1389.109375 184.226562 C 1387.566406 182.722656 1385.800781 181.488281 1385.183594 181.488281 C 1383.980469 181.488281 1376.992188 188.203125 1376.992188 189.359375 C 1376.992188 189.746094 1378.355469 191.445312 1380.019531 193.140625 L 1383.046875 196.226562 L 1381.167969 200.292969 L 1379.285156 204.363281 L 1374.953125 204.738281 L 1370.617188 205.113281 L 1370.402344 211.675781 L 1370.183594 218.238281 L 1379.261719 218.238281 L 1381.148438 222.503906 L 1383.035156 226.765625 L 1380.015625 229.84375 C 1378.351562 231.535156 1376.992188 233.257812 1376.992188 233.671875 C 1376.992188 234.859375 1384.046875 241.488281 1385.308594 241.488281 C 1385.9375 241.488281 1387.59375 240.308594 1388.992188 238.863281 C 1390.394531 237.421875 1391.832031 236.238281 1392.1875 236.238281 C 1392.546875 236.238281 1394.675781 237.078125 1396.917969 238.101562 L 1400.992188 239.96875 L 1400.992188 248.988281 L 1413.742188 248.988281 L 1413.742188 244.113281 C 1413.742188 240.683594 1414.023438 239.238281 1414.691406 239.238281 C 1415.214844 239.238281 1416.898438 238.5625 1418.4375 237.738281 C 1419.976562 236.914062 1421.648438 236.238281 1422.148438 236.238281 C 1422.652344 236.238281 1424.523438 237.671875 1426.308594 239.425781 L 1429.554688 242.609375 L 1433.648438 238.316406 C 1435.902344 235.953125 1437.742188 233.84375 1437.742188 233.628906 C 1437.742188 233.414062 1436.394531 231.890625 1434.742188 230.238281 C 1433.09375 228.589844 1431.742188 226.992188 1431.742188 226.691406 C 1431.742188 226.390625 1432.480469 224.363281 1433.382812 222.191406 L 1435.019531 218.238281 L 1444.492188 218.238281 L 1444.492188 204.738281 L 1435.117188 204.714844 L 1431.835938 196.238281 L 1434.789062 192.882812 C 1436.414062 191.039062 1437.742188 189.3125 1437.742188 189.046875 C 1437.742188 188.78125 1435.902344 186.746094 1433.652344 184.523438 L 1429.5625 180.484375 L 1426.113281 183.660156 C 1424.21875 185.410156 1422.433594 186.726562 1422.144531 186.589844 C 1421.855469 186.449219 1419.847656 185.671875 1417.679688 184.863281 L 1413.742188 183.386719 L 1413.742188 173.988281 L 1401.066406 173.988281 Z M 1401 199.378906 C 1391.886719 204.269531 1390.980469 216.210938 1399.242188 222.507812 C 1401.667969 224.355469 1402.652344 224.613281 1407.3125 224.613281 C 1411.625 224.613281 1413.0625 224.296875 1415.003906 222.914062 C 1418.839844 220.175781 1420.726562 216.441406 1420.792969 211.445312 C 1420.84375 207.765625 1420.507812 206.605469 1418.609375 203.933594 C 1417.378906 202.191406 1415.191406 200.144531 1413.753906 199.378906 C 1410.339844 197.5625 1404.390625 197.5625 1401 199.378906 M 128.082031 238.078125 L 124.875 242.957031 L 120.984375 242.972656 C 116.832031 242.988281 113.261719 244.023438 112.339844 245.472656 C 112.027344 245.964844 111.765625 255.042969 111.761719 265.648438 C 111.75 284.523438 111.785156 284.960938 113.390625 286.460938 C 114.976562 287.9375 115.90625 287.988281 140.800781 287.988281 L 166.566406 287.988281 L 168.40625 286.148438 L 170.25 284.308594 L 170.25 265.605469 C 170.25 243.042969 170.492188 243.714844 162.042969 243.046875 L 156.613281 242.613281 L 153.460938 238.113281 L 150.3125 233.613281 L 140.800781 233.402344 L 131.289062 233.195312 Z M 132.460938 253.675781 C 125.367188 260.496094 126.746094 270.355469 135.355469 274.402344 C 139.523438 276.359375 141.441406 276.386719 145.726562 274.550781 C 152.691406 271.566406 155.53125 263.867188 152.113281 257.246094 C 149.589844 252.355469 146.390625 250.488281 140.527344 250.488281 C 135.957031 250.488281 135.648438 250.609375 132.460938 253.675781 M 447.457031 269.152344 C 434.882812 281.738281 429.738281 287.363281 430.167969 288.058594 C 431.378906 290.019531 433.097656 291.738281 433.847656 291.738281 C 434.265625 291.738281 441.785156 284.570312 450.554688 275.808594 L 466.496094 259.875 L 482.601562 275.96875 L 498.707031 292.058594 L 500.988281 289.871094 L 503.273438 287.683594 L 499.507812 283.875 L 495.746094 280.066406 L 495.746094 260.238281 L 486.746094 260.238281 L 486.746094 264.738281 C 486.746094 267.867188 486.460938 269.238281 485.796875 269.238281 C 485.277344 269.238281 480.808594 265.1875 475.871094 260.238281 C 470.9375 255.289062 466.550781 251.238281 466.128906 251.238281 C 465.707031 251.238281 457.304688 259.300781 447.457031 269.152344 M 971.476562 253.449219 C 961.511719 257.972656 956.460938 268.511719 958.699219 280.113281 L 959.277344 283.113281 L 943.125 296.515625 C 934.238281 303.886719 926.226562 310.960938 925.320312 312.230469 C 923.140625 315.296875 923.078125 321.152344 925.1875 324.769531 C 928.1875 329.90625 935.792969 332.222656 941.050781 329.597656 C 942.304688 328.972656 946.554688 324.5 950.492188 319.660156 C 966.472656 300.03125 970.90625 295.105469 972.410156 295.332031 C 979.960938 296.464844 983.804688 296.316406 988.015625 294.726562 C 992.617188 292.992188 997.363281 288.847656 999.558594 284.652344 C 1002.160156 279.683594 1003.148438 270.839844 1001.304688 269 C 1000.917969 268.609375 998.476562 270.476562 995.457031 273.472656 C 992.605469 276.300781 989.523438 279.269531 988.605469 280.070312 L 986.9375 281.523438 L 980.214844 274.835938 C 976.519531 271.15625 973.496094 267.625 973.496094 266.988281 C 973.496094 266.351562 976.363281 262.976562 979.871094 259.488281 C 983.375 256 986.246094 252.886719 986.246094 252.566406 C 986.246094 251.3125 974.664062 252 971.476562 253.449219 M 176.25 265.46875 L 176.25 272.238281 L 183.292969 272.238281 C 189.027344 272.238281 190.421875 272.460938 190.792969 273.425781 C 191.042969 274.078125 191.25 279.449219 191.25 285.363281 C 191.25 291.277344 191.042969 296.648438 190.792969 297.300781 C 190.472656 298.136719 189.351562 298.488281 187 298.488281 C 184.097656 298.488281 183.21875 298.90625 180.257812 301.707031 C 177.402344 304.40625 176.785156 305.488281 176.457031 308.410156 C 175.957031 312.859375 176.527344 315.0625 178.910156 317.894531 C 184.628906 324.691406 194.371094 323.644531 198.515625 315.789062 L 200.269531 312.46875 L 200.070312 285.789062 L 199.875 259.113281 L 176.25 258.699219 Z M 451.304688 283.308594 L 437.246094 297.378906 L 437.246094 327.003906 L 495.371094 326.613281 L 495.578125 312.050781 L 495.78125 297.488281 L 481.726562 283.363281 C 474 275.59375 467.152344 269.238281 466.515625 269.238281 C 465.878906 269.238281 459.03125 275.570312 451.304688 283.308594 M 156.5 293.738281 C 156.222656 294.011719 156 295.195312 156 296.363281 C 156 298.394531 155.84375 298.488281 152.507812 298.488281 C 148.0625 298.488281 144.410156 301.121094 142.328125 305.824219 C 139.796875 311.550781 142.167969 318.140625 147.796875 321.011719 C 153.554688 323.949219 159.449219 322.25 163.292969 316.546875 C 164.863281 314.21875 165 313.191406 165 303.628906 L 165 293.238281 L 161 293.238281 C 158.800781 293.238281 156.773438 293.464844 156.5 293.738281 M 1684.117188 295.605469 C 1681.953125 296.792969 1675.492188 303.164062 1675.492188 304.109375 C 1675.492188 304.546875 1683.09375 312.480469 1692.382812 321.738281 L 1709.273438 338.566406 L 1734.023438 313.863281 L 1728.195312 313.445312 C 1724.988281 313.214844 1721.691406 312.765625 1720.867188 312.441406 C 1716.792969 310.847656 1711.527344 307.941406 1708.492188 305.605469 C 1695.808594 295.851562 1688.867188 293.003906 1684.117188 295.605469 M 456.933594 297.484375 C 456.238281 297.765625 455.996094 301.027344 455.996094 310.175781 L 455.996094 322.488281 L 476.996094 322.488281 L 476.996094 310.203125 C 476.996094 298.09375 476.972656 297.90625 475.308594 297.460938 C 473.300781 296.921875 458.28125 296.941406 456.933594 297.484375 M 1666.007812 312.898438 C 1659.855469 318.808594 1659.730469 320.371094 1664.992188 325.933594 C 1668.65625 329.804688 1669.414062 331.863281 1668.277344 334.824219 C 1668.023438 335.492188 1663.988281 338.890625 1659.316406 342.382812 C 1649.964844 349.375 1644.769531 355.554688 1643.148438 361.621094 C 1642.335938 364.664062 1642.398438 365.3125 1643.714844 367.574219 C 1645.050781 369.871094 1645.558594 370.132812 1649.046875 370.339844 C 1655.753906 370.730469 1663.046875 365.476562 1670.53125 354.863281 C 1676.605469 346.253906 1677.960938 344.988281 1681.125 344.988281 C 1683.335938 344.988281 1684.542969 345.660156 1687.722656 348.664062 C 1691.347656 352.085938 1692.621094 352.804688 1694.671875 352.578125 C 1695.457031 352.488281 1700.695312 347.648438 1703.570312 344.351562 L 1705.023438 342.6875 L 1670.773438 308.320312 Z M 931.550781 315.464844 C 930.695312 316.550781 929.996094 318.085938 929.996094 318.875 C 929.996094 320.941406 933.347656 323.988281 935.621094 323.988281 C 937.894531 323.988281 941.246094 320.941406 941.246094 318.875 C 941.246094 316.238281 938.375 313.488281 935.621094 313.488281 C 933.796875 313.488281 932.675781 314.03125 931.550781 315.464844 M 1215.1875 395.597656 C 1199.570312 398.699219 1186.546875 412.429688 1184.121094 428.347656 C 1181.394531 446.265625 1192.589844 464.480469 1210.121094 470.632812 C 1210.945312 470.921875 1214.066406 471.597656 1217.058594 472.136719 C 1221.507812 472.9375 1223.503906 472.9375 1228.066406 472.144531 C 1239.144531 470.222656 1248.328125 464.34375 1254.261719 455.375 C 1258.851562 448.441406 1260.167969 444.242188 1260.570312 435.269531 C 1260.855469 428.808594 1260.648438 426.855469 1259.179688 422.195312 C 1254.761719 408.207031 1243.222656 398.105469 1228.734375 395.550781 C 1221.945312 394.355469 1221.433594 394.355469 1215.1875 395.597656 M 691.871094 421.492188 L 683.644531 429.742188 L 687.941406 434.042969 L 692.242188 438.34375 L 700.496094 430.117188 C 709.8125 420.824219 710.4375 419.3125 706.554688 415.429688 C 702.671875 411.546875 701.160156 412.171875 691.871094 421.492188 M 1217.996094 423.394531 C 1210.777344 428.152344 1204.464844 432.453125 1203.972656 432.953125 C 1203.273438 433.664062 1206.207031 435.960938 1217.355469 443.429688 C 1225.207031 448.6875 1231.9375 452.800781 1232.3125 452.570312 C 1232.691406 452.335938 1232.992188 443.855469 1232.992188 433.445312 C 1232.992188 418.976562 1232.78125 414.738281 1232.054688 414.746094 C 1231.542969 414.75 1225.210938 418.640625 1217.996094 423.394531 M 669.554688 431.050781 C 664.863281 437.554688 663.808594 442.480469 663.773438 458.058594 L 663.746094 470.25 L 659.621094 474.738281 C 654.589844 480.210938 654.109375 483.214844 657.6875 486.796875 C 661.109375 490.214844 663.539062 489.792969 668.867188 484.863281 L 673.320312 480.738281 L 684.621094 480.738281 C 699.644531 480.738281 705.734375 479.253906 713.148438 473.777344 L 717.175781 470.800781 L 695.53125 449.144531 C 683.625 437.234375 673.484375 427.488281 673.003906 427.488281 C 672.519531 427.488281 670.96875 429.089844 669.554688 431.050781 M 713.996094 442.863281 L 705.390625 451.492188 L 713.992188 460.09375 L 722.246094 451.863281 C 730.957031 443.179688 731.617188 441.898438 729.261719 438.296875 C 728.121094 436.5625 724.660156 434.238281 723.207031 434.238281 C 722.871094 434.238281 718.726562 438.121094 713.996094 442.863281 M 1473.503906 460.976562 C 1473.222656 461.257812 1472.992188 475.609375 1472.992188 492.871094 L 1472.992188 524.257812 L 1497.554688 524.0625 L 1522.117188 523.863281 L 1522.117188 460.863281 L 1498.066406 460.664062 C 1484.835938 460.554688 1473.785156 460.695312 1473.503906 460.976562 M 1458.742188 507.363281 L 1458.742188 539.238281 L 1507.5625 539.238281 L 1507.117188 529.863281 L 1487.429688 529.664062 L 1467.742188 529.460938 L 1467.742188 475.488281 L 1458.742188 475.488281 Z M 1853.617188 481.1875 C 1848.949219 483.570312 1846.179688 486.144531 1843.613281 490.488281 C 1841.769531 493.601562 1841.613281 494.519531 1841.597656 502.375 L 1841.582031 510.882812 L 1825.847656 523.945312 C 1817.195312 531.125 1809.53125 537.707031 1808.8125 538.566406 C 1804.398438 543.863281 1806.585938 553.679688 1812.875 556.816406 C 1816.097656 558.425781 1821.585938 558.304688 1824.4375 556.566406 C 1825.710938 555.789062 1828.070312 553.511719 1829.679688 551.507812 C 1831.289062 549.503906 1837.460938 542.023438 1843.402344 534.886719 C 1851.734375 524.875 1854.476562 522.035156 1855.410156 522.46875 C 1857.597656 523.484375 1866.253906 523.648438 1869.320312 522.726562 C 1876.527344 520.570312 1882.316406 514.328125 1884.382812 506.488281 C 1885.476562 502.324219 1885.308594 496.929688 1884.058594 496.15625 C 1883.753906 495.96875 1880.671875 498.664062 1877.203125 502.152344 C 1873.738281 505.636719 1870.5625 508.488281 1870.148438 508.488281 C 1869.085938 508.488281 1856.242188 495.582031 1856.242188 494.515625 C 1856.242188 494.035156 1859.109375 490.730469 1862.617188 487.175781 C 1866.121094 483.621094 1868.992188 480.382812 1868.992188 479.976562 C 1868.992188 479.554688 1866.507812 479.246094 1863.179688 479.257812 C 1858.453125 479.273438 1856.664062 479.632812 1853.617188 481.1875 M 78.4375 483.257812 C 74.289062 487.410156 73.148438 491.78125 74.375 498.847656 C 76.261719 509.761719 82.304688 516.140625 89.40625 514.71875 C 97.546875 513.089844 103.0625 496.027344 98.449219 486.738281 C 95.972656 481.75 92.914062 479.988281 86.746094 479.988281 C 81.800781 479.988281 81.652344 480.046875 78.4375 483.257812 M 379.125 491.027344 C 364.261719 492.152344 349.871094 504.023438 345.234375 518.988281 C 343.46875 524.679688 343.453125 536.058594 345.199219 541.488281 C 345.929688 543.757812 347.652344 547.636719 349.027344 550.113281 L 351.523438 554.613281 L 414.359375 554.613281 L 416.722656 550.652344 C 420.035156 545.113281 421.609375 539.847656 422.042969 532.863281 C 422.773438 521.09375 419.433594 511.890625 411.300781 503.273438 C 402.816406 494.277344 391.757812 490.070312 379.125 491.027344 M 378.960938 496.640625 C 376.5 499.710938 377.503906 504.039062 381.019531 505.496094 C 385.570312 507.378906 390.054688 502.339844 387.652344 498.039062 C 386.78125 496.480469 385.925781 496.070312 383.15625 495.890625 C 381.015625 495.75 379.449219 496.027344 378.960938 496.640625 M 928.871094 498.148438 C 924.136719 500.882812 923.996094 501.648438 923.996094 524.636719 C 923.996094 544.132812 924.085938 545.507812 925.484375 547.472656 C 927.574219 550.410156 932.042969 551.988281 938.261719 551.988281 L 943.496094 551.988281 L 943.496094 563.238281 C 943.496094 569.425781 943.753906 574.488281 944.066406 574.488281 C 944.382812 574.488281 949.652344 569.464844 955.785156 563.324219 L 966.925781 552.164062 L 973.398438 551.84375 C 980.554688 551.488281 983.457031 550.414062 985.800781 547.246094 C 987.285156 545.246094 987.382812 544.054688 987.59375 525.308594 C 987.839844 503.234375 987.527344 501.457031 982.929688 498.652344 C 980.789062 497.347656 978.777344 497.246094 955.496094 497.261719 C 937.898438 497.277344 929.921875 497.542969 928.871094 498.148438 M 400.871094 505.644531 C 397.460938 507.601562 396.613281 510.640625 398.664062 513.570312 C 399.523438 514.792969 400.589844 515.238281 402.675781 515.238281 C 406.128906 515.238281 407.996094 513.4375 407.996094 510.105469 C 407.996094 508.214844 407.488281 507.40625 405.558594 506.230469 C 402.734375 504.507812 402.832031 504.519531 400.871094 505.644531 M 359.414062 506.65625 C 357.3125 508.125 357.148438 512.214844 359.121094 513.996094 C 360.972656 515.675781 365.4375 515.601562 367.007812 513.867188 C 369.996094 510.5625 367.566406 505.488281 363 505.488281 C 361.945312 505.488281 360.332031 506.011719 359.414062 506.65625 M 383.796875 522.140625 C 372.300781 537.683594 372.75 536.941406 372.75 540.34375 C 372.757812 546.773438 378.003906 551.101562 384.683594 550.1875 C 388.464844 549.667969 391.179688 547.558594 392.71875 543.949219 C 393.957031 541.042969 394.21875 511.867188 393.015625 511.121094 C 392.609375 510.875 388.460938 515.832031 383.796875 522.140625 M 64.976562 521.570312 C 60.246094 523.886719 56.601562 527.4375 54.148438 532.113281 C 52.410156 535.425781 52.148438 536.921875 51.890625 544.949219 L 51.601562 554.035156 L 53.738281 554.542969 C 54.914062 554.824219 57.226562 555.398438 58.875 555.816406 C 69.621094 558.554688 80.855469 559.707031 91.875 559.210938 C 97.238281 558.96875 102.128906 558.648438 102.75 558.5 C 103.367188 558.351562 105.222656 557.988281 106.875 557.695312 C 110.523438 557.042969 115.511719 555.914062 119.886719 554.738281 L 123.148438 553.867188 L 122.855469 545.613281 C 122.625 539.097656 122.207031 536.574219 120.871094 533.613281 C 118.703125 528.816406 113.890625 523.847656 109.171875 521.546875 C 103.441406 518.75 101.269531 519.09375 94.5 523.863281 C 91.28125 526.132812 88.105469 527.988281 87.441406 527.988281 C 86.777344 527.988281 83.359375 526.132812 79.839844 523.863281 C 72.53125 519.148438 70.550781 518.839844 64.976562 521.570312 M 349.976562 526.542969 C 346.246094 529.476562 348.125 535.488281 352.773438 535.488281 C 357.890625 535.488281 360.191406 530.359375 356.65625 526.828125 C 354.410156 524.578125 352.570312 524.5 349.976562 526.542969 M 409.613281 526.300781 C 405.75 529.570312 407.847656 535.488281 412.875 535.488281 C 416.085938 535.488281 418.8125 532.398438 418.132812 529.519531 C 417.566406 527.113281 415.097656 524.988281 412.875 524.988281 C 411.933594 524.988281 410.464844 525.578125 409.613281 526.300781 M 380.414062 536.65625 C 379.277344 537.453125 378.75 538.589844 378.75 540.253906 C 378.75 543.339844 379.902344 544.488281 383.007812 544.488281 C 387.394531 544.488281 389.105469 539.140625 385.578125 536.453125 C 383.941406 535.203125 382.398438 535.265625 380.414062 536.65625 M 1814.582031 542.578125 C 1813.570312 543.589844 1812.742188 545.125 1812.742188 545.988281 C 1812.742188 548.277344 1816.03125 551.238281 1818.578125 551.238281 C 1819.855469 551.238281 1821.390625 550.535156 1822.359375 549.5 C 1827.269531 544.277344 1819.65625 537.503906 1814.582031 542.578125 M 654.746094 662.988281 L 654.746094 667.5 L 689.058594 667.308594 L 723.371094 667.113281 L 723.371094 658.863281 L 654.746094 658.472656 Z M 1582.367188 661.859375 C 1582.164062 662.066406 1579.152344 662.609375 1575.679688 663.066406 C 1572.207031 663.523438 1567.679688 664.324219 1565.617188 664.839844 L 1561.867188 665.777344 L 1561.644531 670.773438 L 1561.421875 675.765625 L 1571.878906 690.601562 C 1577.628906 698.757812 1583.210938 706.730469 1584.289062 708.316406 C 1586.191406 711.121094 1586.242188 711.503906 1586.242188 723.140625 C 1586.242188 729.785156 1586.578125 735.714844 1587.003906 736.507812 C 1588.558594 739.414062 1600.125 745.488281 1604.105469 745.488281 C 1604.761719 745.488281 1604.992188 741.09375 1604.992188 728.5625 C 1604.992188 718.074219 1605.292969 711.074219 1605.789062 710.152344 C 1606.226562 709.335938 1611.808594 701.355469 1618.191406 692.421875 L 1629.800781 676.179688 L 1629.585938 670.96875 L 1629.367188 665.757812 L 1625.242188 664.800781 C 1615.382812 662.511719 1605.890625 661.488281 1594.566406 661.488281 C 1588.0625 661.488281 1582.574219 661.65625 1582.367188 661.859375 M 654.746094 682.398438 C 654.746094 685.742188 655.039062 686.9375 655.933594 687.28125 C 657.753906 687.980469 721.738281 687.800781 722.851562 687.09375 C 723.515625 686.671875 723.757812 685.152344 723.601562 682.414062 L 723.371094 678.363281 L 654.746094 677.972656 Z M 654.746094 702.730469 L 654.746094 707.238281 L 722.96875 707.238281 L 723.414062 705.464844 C 723.65625 704.492188 723.75 702.550781 723.613281 701.152344 L 723.371094 698.613281 L 654.746094 698.222656 Z M 394.125 705.453125 C 387.125 706.519531 377.515625 711.871094 372.117188 717.710938 C 362.382812 728.238281 359.1875 744.707031 364.332031 757.855469 C 371.855469 777.09375 393.191406 787.242188 412.460938 780.75 C 424.625 776.652344 434.492188 766.28125 437.707031 754.210938 C 439.292969 748.25 439.042969 737.636719 437.1875 731.980469 C 433.367188 720.347656 424.726562 711.449219 413.089844 707.171875 C 409.148438 705.71875 398.632812 704.769531 394.125 705.453125 M 1260.285156 706.414062 C 1257.84375 707.90625 1255.664062 710.667969 1254.144531 714.210938 C 1251.707031 719.890625 1254.550781 731.691406 1259.640625 737.003906 C 1262.503906 739.992188 1263.027344 740.238281 1266.589844 740.238281 C 1270.023438 740.238281 1270.742188 739.9375 1273.175781 737.503906 C 1276.324219 734.355469 1277.820312 731.207031 1279.183594 724.863281 C 1280.816406 717.265625 1278.113281 709.59375 1272.742188 706.574219 C 1269.113281 704.535156 1263.488281 704.464844 1260.285156 706.414062 M 114.769531 723.0625 C 104.359375 725.746094 96.054688 732.570312 91.449219 742.21875 C 82.097656 761.808594 92.4375 785.039062 113.265625 791.242188 C 125.617188 794.917969 138.53125 791.574219 147.816406 782.289062 C 162.304688 767.800781 161.59375 744.796875 146.222656 730.980469 C 141.019531 726.304688 136.773438 724.203125 129.480469 722.699219 C 122.335938 721.230469 121.824219 721.242188 114.769531 723.0625 M 960.484375 725.960938 L 955.871094 730.4375 L 990.355469 764.984375 L 1002.550781 752.804688 L 1014.746094 740.628906 L 1007.808594 739.75 C 1000.105469 738.773438 995.519531 736.769531 988.097656 731.128906 C 979.863281 724.871094 978.347656 723.914062 974.78125 722.703125 C 972.808594 722.035156 969.820312 721.488281 968.144531 721.488281 C 965.4375 721.488281 964.582031 721.984375 960.484375 725.960938 M 395.933594 733.707031 C 388.335938 738.742188 382.125 743.285156 382.125 743.800781 C 382.125 744.878906 409.585938 763.484375 410.4375 762.980469 C 411.210938 762.519531 411.148438 725.417969 410.371094 724.9375 C 410.027344 724.722656 403.53125 728.671875 395.933594 733.707031 M 117 726.539062 C 108.898438 728.050781 99.011719 735.855469 95.078125 743.84375 L 92.683594 748.710938 L 95.9375 751.597656 C 99.332031 754.609375 100.964844 755.28125 100.226562 753.363281 C 99.691406 751.960938 101.109375 751.898438 102.691406 753.25 C 103.34375 753.808594 105.898438 755.058594 108.375 756.035156 C 110.847656 757.007812 113.019531 757.90625 113.195312 758.027344 C 113.371094 758.152344 112.785156 758.933594 111.890625 759.765625 C 109.65625 761.847656 107.863281 765.515625 108.140625 767.429688 C 108.28125 768.394531 110.144531 770.222656 112.875 772.074219 C 117.964844 775.527344 119.996094 778.785156 120 783.503906 C 120 785.234375 120.335938 786.855469 120.75 787.113281 C 121.828125 787.777344 128.554688 783.945312 131.734375 780.855469 C 137.042969 775.699219 138.785156 767.890625 135.738281 762.894531 C 134.148438 760.28125 129.734375 757.949219 124.71875 757.066406 C 115.054688 755.363281 108 751.339844 108 747.527344 C 108 743.761719 109.789062 743.519531 115.589844 746.503906 C 118.511719 748.003906 121.167969 749.066406 121.496094 748.863281 C 121.824219 748.660156 121.453125 747.242188 120.671875 745.707031 C 118.777344 741.992188 118.808594 735.40625 120.75 730.308594 C 121.574219 728.136719 122.25 726.277344 122.25 726.175781 C 122.25 725.914062 119.242188 726.121094 117 726.539062 M 946.660156 739.695312 C 940.632812 745.777344 940.589844 746.96875 946.179688 753.050781 C 948.8125 755.914062 950.203125 758.019531 949.929688 758.730469 C 949.691406 759.351562 949.496094 760.15625 949.496094 760.519531 C 949.496094 761.535156 946.75 763.953125 939.296875 769.5 C 926.125 779.308594 920.414062 789.953125 925.453125 795.316406 C 930.417969 800.597656 941.027344 795.25 950.164062 782.855469 C 958.691406 771.285156 958.226562 771.738281 961.644531 771.738281 C 964.3125 771.738281 965.253906 772.238281 968.691406 775.488281 C 970.914062 777.589844 973.363281 779.238281 974.265625 779.238281 C 975.941406 779.238281 985.496094 770.675781 985.496094 769.171875 C 985.496094 768.375 952.507812 734.988281 951.71875 734.988281 C 951.503906 734.988281 949.226562 737.105469 946.660156 739.695312 M 145.695312 743.414062 C 144.390625 744.761719 142.804688 747.109375 142.167969 748.636719 C 140.683594 752.199219 141.445312 754.332031 145.917969 759.109375 C 147.753906 761.070312 149.644531 763.535156 150.121094 764.582031 C 150.597656 765.628906 151.441406 766.488281 151.996094 766.488281 C 152.546875 766.488281 153 766.402344 153.003906 766.300781 C 153.007812 766.195312 153.339844 764.097656 153.742188 761.632812 C 154.230469 758.636719 154.214844 755.535156 153.695312 752.265625 C 152.929688 747.484375 150.398438 741.722656 148.84375 741.21875 C 148.414062 741.082031 146.996094 742.066406 145.695312 743.414062 M 1273.890625 749.304688 C 1270.242188 751.742188 1266.964844 753.738281 1266.605469 753.738281 C 1266.246094 753.738281 1263.183594 751.878906 1259.792969 749.613281 C 1252.855469 744.964844 1249.96875 744.453125 1244.570312 746.902344 C 1234.90625 751.292969 1230.28125 760.546875 1230.890625 774.28125 L 1231.117188 779.449219 L 1236.742188 780.777344 C 1254.585938 784.992188 1266.195312 786.066406 1276.40625 784.449219 C 1286.507812 782.847656 1294.222656 781.421875 1297.867188 780.476562 L 1301.617188 779.503906 L 1301.617188 770.558594 C 1301.617188 760.175781 1300.855469 757.910156 1295.367188 752.046875 C 1291.796875 748.230469 1287.730469 745.96875 1283.195312 745.28125 C 1280.855469 744.925781 1279.691406 745.433594 1273.890625 749.304688 M 1748.089844 875.105469 L 1743.367188 879.6875 L 1760.234375 896.585938 C 1769.511719 905.878906 1777.449219 913.484375 1777.867188 913.484375 C 1778.289062 913.484375 1784.011719 908.101562 1790.585938 901.519531 C 1798.507812 893.582031 1802.167969 889.429688 1801.449219 889.1875 C 1800.855469 888.988281 1797.835938 888.695312 1794.742188 888.539062 C 1787.644531 888.179688 1783.304688 886.199219 1773.800781 879 C 1764.808594 872.183594 1763.480469 871.523438 1757.628906 870.976562 L 1752.808594 870.523438 Z M 1734.15625 888.945312 C 1728.195312 894.957031 1728.097656 896.351562 1733.242188 901.789062 C 1739.34375 908.242188 1738.195312 911.03125 1726.035156 919.285156 C 1718.191406 924.613281 1712.042969 932.753906 1710.996094 939.199219 C 1710.386719 942.964844 1713.570312 946.484375 1717.589844 946.484375 C 1723.316406 946.484375 1731.324219 940.90625 1737.035156 932.9375 C 1747.519531 918.296875 1749.144531 917.640625 1756.605469 925.03125 C 1758.613281 927.019531 1760.785156 928.484375 1761.730469 928.484375 C 1763.4375 928.484375 1772.992188 919.945312 1772.992188 918.421875 C 1772.992188 917.625 1740 884.234375 1739.214844 884.234375 C 1739 884.234375 1736.722656 886.355469 1734.15625 888.945312 M 646.289062 888.085938 C 642.15625 891.171875 641.996094 892.132812 641.996094 914.140625 L 641.996094 934.371094 L 644.023438 936.78125 C 646.789062 940.066406 649.988281 941.234375 656.222656 941.234375 L 661.496094 941.234375 L 661.496094 952.484375 C 661.496094 961.191406 661.714844 963.734375 662.46875 963.734375 C 663.003906 963.734375 668.398438 958.714844 674.457031 952.578125 L 685.472656 941.421875 L 692.046875 941.105469 C 696.730469 940.882812 699.320312 940.378906 701.046875 939.359375 C 705.46875 936.746094 705.746094 935.253906 705.746094 913.910156 C 705.746094 892.484375 705.414062 890.632812 701.105469 888.003906 C 698.742188 886.566406 697.398438 886.492188 673.496094 886.511719 C 649.269531 886.53125 648.296875 886.589844 646.289062 888.085938 M 124.308594 912.84375 C 120.320312 913.964844 114.4375 919.535156 112.160156 924.351562 C 110.011719 928.890625 109.628906 934.863281 111.15625 939.960938 L 112.0625 942.980469 L 95.078125 959.613281 L 78.097656 976.246094 L 79.820312 979.820312 C 80.765625 981.785156 82.007812 983.6875 82.582031 984.050781 C 83.839844 984.851562 93.054688 984.9375 94.164062 984.160156 C 94.597656 983.859375 96.285156 980.234375 97.914062 976.109375 L 100.875 968.609375 L 105.75 968.117188 C 113.339844 967.34375 114.089844 966.835938 118.144531 959.761719 L 121.789062 953.410156 L 129.417969 953.800781 C 136.371094 954.15625 137.363281 954.035156 140.582031 952.425781 C 153.714844 945.867188 156.542969 928.457031 146.167969 918.078125 C 144.554688 916.46875 141.976562 914.550781 140.429688 913.820312 C 137.097656 912.238281 128.347656 911.707031 124.308594 912.84375 M 1011.566406 932.21875 C 1001 942.863281 993.921875 950.554688 994.160156 951.132812 C 994.378906 951.671875 995.425781 952.746094 996.484375 953.519531 L 998.410156 954.929688 L 1030.496094 922.875 L 1046.597656 938.964844 L 1062.703125 955.054688 L 1064.984375 952.867188 L 1067.269531 950.683594 L 1063.507812 946.871094 L 1059.746094 943.0625 L 1059.746094 923.234375 L 1050.746094 923.234375 L 1050.746094 927.734375 C 1050.746094 930.867188 1050.457031 932.234375 1049.796875 932.234375 C 1049.273438 932.234375 1044.808594 928.1875 1039.871094 923.234375 C 1034.933594 918.285156 1030.550781 914.246094 1030.132812 914.257812 C 1029.710938 914.269531 1021.359375 922.351562 1011.566406 932.21875 M 132.984375 923.210938 C 129.425781 924.707031 128.683594 929.738281 131.589844 932.644531 C 135.386719 936.441406 141.75 933.878906 141.75 928.546875 C 141.75 926.765625 141.246094 925.261719 140.386719 924.484375 C 138.667969 922.929688 135.117188 922.316406 132.984375 923.210938 M 1401 926.976562 C 1397.789062 931.703125 1397.339844 931.9375 1390.554688 932.472656 C 1387.757812 932.691406 1386.179688 933.214844 1385.492188 934.15625 C 1384.722656 935.207031 1384.492188 939.878906 1384.492188 954.503906 C 1384.492188 972.484375 1384.570312 973.5625 1385.992188 974.984375 C 1387.4375 976.429688 1388.492188 976.484375 1414 976.484375 C 1438.730469 976.484375 1440.59375 976.394531 1441.75 975.113281 C 1442.839844 973.910156 1442.992188 971.332031 1442.992188 954.207031 C 1442.992188 937.296875 1442.832031 934.535156 1441.804688 933.683594 C 1441.152344 933.140625 1438.210938 932.507812 1435.265625 932.277344 L 1429.914062 931.859375 L 1423.382812 922.484375 L 1404.050781 922.484375 Z M 391.25 928.234375 C 390.972656 928.511719 390.742188 930.621094 390.738281 932.921875 L 390.726562 937.109375 L 381.578125 940.632812 L 375.078125 934.25 L 370.726562 938.464844 L 366.378906 942.675781 L 369.5625 945.921875 C 371.316406 947.707031 372.75 949.484375 372.75 949.875 C 372.75 950.261719 372.015625 952.34375 371.125 954.5 L 369.5 958.421875 L 360.375 958.859375 L 360.375 971.609375 L 364.9375 971.828125 L 369.5 972.050781 L 371.21875 976.203125 L 372.941406 980.355469 L 369.6875 983.675781 L 366.429688 986.992188 L 370.5 991.113281 C 372.738281 993.378906 374.9375 995.234375 375.386719 995.234375 C 375.835938 995.234375 377.347656 994.054688 378.75 992.609375 C 380.148438 991.167969 381.730469 989.984375 382.261719 989.984375 C 382.796875 989.984375 384.910156 990.71875 386.957031 991.609375 L 390.683594 993.238281 L 390.902344 997.796875 L 391.125 1002.359375 L 403.5 1002.796875 L 403.5 993.714844 L 407.660156 991.8125 C 412.371094 989.65625 413.695312 989.832031 416.519531 993 C 417.613281 994.230469 418.941406 995.234375 419.46875 995.234375 C 420.558594 995.234375 427.5 988.429688 427.5 987.363281 C 427.5 986.980469 426.136719 985.277344 424.472656 983.582031 L 421.445312 980.5 L 423.324219 976.429688 L 425.207031 972.359375 L 429.914062 971.984375 L 434.625 971.609375 L 434.625 958.859375 L 425.164062 958.109375 L 423.433594 953.847656 L 421.707031 949.585938 L 424.601562 946.757812 C 426.195312 945.203125 427.5 943.566406 427.5 943.121094 C 427.5 942.675781 425.644531 940.476562 423.375 938.238281 L 419.253906 934.167969 L 416.046875 937.3125 L 412.84375 940.457031 L 408.359375 938.640625 L 403.875 936.820312 L 403.648438 932.277344 L 403.425781 927.734375 L 397.585938 927.734375 C 394.375 927.734375 391.523438 927.960938 391.25 928.234375 M 1015.300781 946.304688 L 1001.246094 960.375 L 1001.246094 990.003906 L 1030.308594 989.804688 L 1059.371094 989.609375 L 1059.777344 960.40625 L 1045.707031 946.320312 C 1037.96875 938.574219 1031.121094 932.234375 1030.496094 932.234375 C 1029.867188 932.234375 1023.03125 938.566406 1015.300781 946.304688 M 1410.121094 939.714844 C 1407.34375 940.386719 1403.667969 943.539062 1402.050781 946.636719 C 1400.667969 949.285156 1400.699219 954.992188 1402.117188 957.734375 C 1402.734375 958.929688 1404.480469 960.851562 1405.996094 962.007812 C 1408.375 963.824219 1409.429688 964.109375 1413.742188 964.109375 C 1418.089844 964.109375 1419.101562 963.832031 1421.570312 961.949219 C 1430.488281 955.144531 1426.726562 940.957031 1415.617188 939.5 C 1413.96875 939.285156 1411.492188 939.378906 1410.121094 939.714844 M 1449.929688 947.722656 C 1449.285156 947.988281 1448.992188 950.078125 1448.992188 954.410156 C 1448.992188 961.703125 1448.558594 961.351562 1457.992188 961.671875 L 1463.617188 961.859375 L 1463.617188 987.128906 L 1460.039062 987.410156 C 1455.875 987.738281 1453.621094 989.203125 1450.929688 993.324219 C 1447.910156 997.945312 1448.53125 1003.191406 1452.605469 1007.484375 C 1454.78125 1009.78125 1458.746094 1011.734375 1461.222656 1011.734375 C 1464.414062 1011.734375 1469.222656 1008.660156 1471.136719 1005.394531 L 1473.011719 1002.195312 L 1472.816406 974.902344 L 1472.617188 947.609375 L 1461.742188 947.472656 C 1455.761719 947.394531 1450.445312 947.507812 1449.929688 947.722656 M 390.839844 953.019531 C 389.445312 953.703125 387.304688 955.636719 386.085938 957.3125 C 384.042969 960.121094 383.886719 960.773438 384.128906 965.609375 C 384.417969 971.460938 385.574219 973.613281 389.996094 976.535156 C 393.621094 978.933594 399.953125 979.332031 403.480469 977.390625 C 404.914062 976.597656 407.089844 974.710938 408.320312 973.191406 C 410.152344 970.929688 410.605469 969.585938 410.832031 965.769531 C 411.074219 961.691406 410.851562 960.71875 409.054688 957.992188 C 406.277344 953.769531 402.46875 951.730469 397.394531 951.753906 C 395.183594 951.761719 392.234375 952.332031 390.839844 953.019531 M 1019.996094 973.109375 L 1019.996094 985.484375 L 1040.996094 985.484375 L 1040.996094 960.734375 L 1019.996094 960.734375 Z M 1429.355469 984.519531 C 1429.140625 986.355469 1428.683594 986.644531 1424.769531 987.425781 C 1417.972656 988.78125 1414.492188 992.898438 1414.492188 999.585938 C 1414.492188 1002.171875 1415 1004.015625 1416.203125 1005.800781 C 1418.1875 1008.75 1423 1011.707031 1425.839844 1011.722656 C 1430.628906 1011.753906 1436.011719 1007.6875 1437.640625 1002.8125 C 1438.109375 1001.410156 1438.492188 996.261719 1438.492188 991.375 L 1438.492188 982.484375 L 1434.042969 982.484375 C 1429.761719 982.484375 1429.582031 982.5625 1429.355469 984.519531 " />
    </g>
</svg>